/* XPM */
static char *ou_dr[] = {
/* columns rows colors chars-per-pixel */
"90 64 207 2 ",
"   c #38332E",
".  c #3B3631",
"X  c #3E3933",
"o  c #312D28",
"O  c #45403A",
"+  c #4A433C",
"@  c #57493C",
"#  c #604D3D",
"$  c #69543F",
"%  c #65513D",
"&  c #4E4843",
"*  c #534B44",
"=  c #5B4D43",
"-  c #514C48",
";  c #56514A",
":  c #5B544B",
">  c #5E5448",
",  c #5E5953",
"<  c #585550",
"1  c #614F43",
"2  c #645244",
"3  c #6B5644",
"4  c #6E5943",
"5  c #66564A",
"6  c #6C5648",
"7  c #645A4C",
"8  c #6D5A4A",
"9  c #735C45",
"0  c #785F47",
"q  c #745C4B",
"w  c #795F4B",
"e  c #645C53",
"r  c #695E53",
"t  c #645E59",
"y  c #7C6146",
"u  c #76614C",
"i  c #7C624C",
"p  c #6A6255",
"a  c #6C645B",
"s  c #6F685C",
"d  c #66635E",
"f  c #756454",
"g  c #7D6552",
"h  c #7D6955",
"j  c #70665A",
"k  c #746B5C",
"l  c #7C6C5B",
"z  c #7F715F",
"x  c #6A6761",
"c  c #6C6A64",
"v  c #6C6C6B",
"b  c #736D63",
"n  c #7A6E61",
"m  c #726E6A",
"M  c #786F68",
"N  c #767165",
"B  c #7B7264",
"V  c #74736C",
"C  c #7B756B",
"Z  c #75796E",
"A  c #7E796C",
"S  c #7C7966",
"D  c #6D6F71",
"F  c #6F7173",
"G  c #747472",
"H  c #7A7671",
"J  c #757870",
"K  c #7C7B74",
"L  c #747779",
"P  c #76797B",
"I  c #7C7D7B",
"U  c #81664D",
"Y  c #836A4D",
"T  c #896D4E",
"R  c #8B704F",
"E  c #816651",
"W  c #846A53",
"Q  c #8B6D54",
"!  c #856D59",
"~  c #896E59",
"^  c #906F56",
"/  c #8D7154",
"(  c #85735D",
")  c #8C735B",
"_  c #8F785D",
"`  c #917456",
"'  c #947957",
"]  c #93755B",
"[  c #95795D",
"{  c #9A7C5D",
"}  c #837563",
"|  c #8C7661",
" . c #857966",
".. c #8D7A64",
"X. c #81766A",
"o. c #837A6C",
"O. c #8C7D6B",
"+. c #917761",
"@. c #947C64",
"#. c #9A7D62",
"$. c #937E69",
"%. c #987F69",
"&. c #837D73",
"*. c #8A7F70",
"=. c #817E7A",
"-. c #7E817A",
";. c #7D8177",
":. c #9D805E",
">. c #8D816E",
",. c #86806F",
"<. c #958066",
"1. c #9C8164",
"2. c #94826C",
"3. c #9C846B",
"4. c #9E886E",
"5. c #858176",
"6. c #8C8374",
"7. c #84827D",
"8. c #8B857B",
"9. c #8E897D",
"0. c #948573",
"q. c #9B8671",
"w. c #958876",
"e. c #9D8A74",
"r. c #928778",
"t. c #948B7C",
"y. c #9B8D7B",
"u. c #9E917E",
"i. c #A28465",
"p. c #A2866A",
"a. c #A48A6D",
"s. c #A98C6D",
"d. c #A58766",
"f. c #A38C73",
"g. c #AA8F72",
"h. c #A28F79",
"j. c #A08771",
"k. c #A69075",
"l. c #AB9275",
"z. c #A3927C",
"x. c #AB957B",
"c. c #AD997D",
"v. c #B1997D",
"b. c #B09579",
"n. c #A8916F",
"m. c #7C7F81",
"M. c #7E8082",
"N. c #838483",
"B. c #898782",
"V. c #8C8A85",
"C. c #848689",
"Z. c #86898C",
"A. c #8C8D8B",
"S. c #868984",
"D. c #938E83",
"F. c #998F81",
"G. c #918F89",
"H. c #8E908F",
"J. c #969085",
"K. c #9C9384",
"L. c #94928C",
"P. c #9A958B",
"I. c #9E988D",
"U. c #878B91",
"Y. c #8A8E91",
"T. c #8E9192",
"R. c #8F9398",
"E. c #949493",
"W. c #999791",
"Q. c #979896",
"!. c #9B9A94",
"~. c #939699",
"^. c #96999B",
"/. c #9C9D9B",
"(. c #A29583",
"). c #AA9780",
"_. c #A69985",
"`. c #AB9B84",
"'. c #A09789",
"]. c #A39A8B",
"[. c #AA9D8A",
"{. c #B09D82",
"}. c #A29D93",
"|. c #A19F99",
" X c #9FA09E",
".X c #AEA18C",
"XX c #B3A086",
"oX c #B3A28B",
"OX c #A5A195",
"+X c #ABA394",
"@X c #A3A29B",
"#X c #AAA69D",
"$X c #AFA89B",
"%X c #B1A694",
"&X c #B2A99A",
"*X c #969BA0",
"=X c #9B9EA1",
"-X c #9EA1A3",
";X c #A3A4A3",
":X c #A7A8A6",
">X c #ABAAA4",
",X c #A2A6AA",
"<X c #A6A9AB",
"1X c #ABACAB",
"2X c #AAA7A0",
"3X c #B3B2AC",
"4X c #AFAFAB",
/* pixels */
"3X<X:X:X!.t.5.&.&.5.&.o.A A A b k k A o.o.A B b k A &.5.8.V.&.B 7.C.Z.V.8.5.o.A b B k k b s e r e p r e s s p e 7 7 r ; ; k B k p 8 7 7 7 8 7 7 7 p r s p A N s p p p p k N R.R.R.Y.",
":X~.Z.C.I b s e 7 k b b b k &.A b N A A A N N N m m N G m c c d c c v v m c ; ; e , ; - - p e G A &.=.7.Z.L.D.V.C.Z.Z.Z.Z.G.G.G.Z.G.G.V.8.L.E.L.D.!.L.&.I Z.Z.E.~.~.^.^.Y.~.-X*XY.Y.",
":XC.C.Z.M.C.Z.C.7.V.E.E.E.Z.E.L.Z.H.Q././.!.G.L.E.E.R.L.Z.C.^././.L.7.V.E.R.B.D.E.Y.Y.M., p c K 5.&.V.L.E.E.W./.=X^.^.-X<X-X-X=X=X=X=X/. X:X:X:X2X:X:X:X:X=X/.=X/.-X<X,X=X:X@X~.Y.E.",
":XY.Y.~.~.E.E.E.E.E.E.E.Z.Z.Z.Z.V.Z.R.E.W.!.E.L.L.L.Z.Z.Z.Y.-X:X:X/.L.V.Z.Z.E././.^.^.Y.G 5.8.=.K K 7.V.V.Z.Z.Z.Y.R.R.E./.^.~.E.E.!.!.|././.=X-X@X/./.:X:X XE.E.Z.Z.E.~.E.L.J.Z.Y.^.",
"1XY.R.=X-X=X/.E.E.E.E.E.E.L.E.L.G.Z.Z.Z.Z.E.E.!.!.E.E.Y.Z.Z./.@X@X}.!.!.!.E.Z.E.L.L.E.C.I I.!./.L.Z.Z.Z.Z.V.D.V.H.G.V.Z.L.E.E.L.L.E.!.}.!./././.!.!./././.!.E.Y.Z.B.V.H.L.D.G.Z.Z.E.",
"1XY.~.=X=X=X/.W.J.E.E.E.E.E.E.E.L.E.R.H.Z.L.E.!.!.E.E.E.Z.V.J.I.!.}.}.!././.L.D.V.V.V.-.C.OXOX:X<X=X~.R.G.D.t.J.J.G.V.Z.E. X/.E.Z.Z.Z.L.E.W.L.J.W.E.E.E.W.W.L.Z.V.B.V.Z.L.G.Z.Y.Z.Y.",
"1XY.~.-X-X=X/.!.W.E.L.E.E.E./.!.E.E.E.E.E.E.W.!.!.E.^./.E.D.J.K.!.].OX/./.E.!.!.J.L.Z.C.I ].].>X1X:X@X!.K.u.e.u.E.E.L.L.E.:X-X!.E.R.E.L.E.L.L.L.J.L.!.E.!.!.K.D.D.V.V.G.D.D.D.Z.Z.Z.",
"1XY.~.<X1X:X/.W.E.L.J.L.E.E././.^.Q././.^.!./.@X|.^.^./.^.!.[.'.].'.}././.E.!.>X:X:X=XY.I J.].1X3X$X.X[.z.k.f.f.!.}.].(.J.:X:X/./.!.!.W.E.E.L.L.L.J.J.J.J.J.K.J.y.w.y.K.K.D.G.E.Z.Z.",
"<XU.Y.:X:X<X:X/.J.L.K.L.G.L.E.E.~.E.!.!.Q.E.!.}.}.!.!.J.L.J.oX[.].z.].!././.!.>X<X:X=XR.I !.!.:X&X%XoXc.l.k.f.k.}.[.[.[.].>X1X:X|./.@XI.E.E.J.y.K.K.K.K.z.K.u.y.e.4.z.(.K.D.Z.Y.Z.Z.",
"<XU.Y./.:X:X<X:X}.!.K.J.L.R.E.L.E.E.J.J.E.E.L.u.f.z.z.y.V.D.oX{.[.f.u././.!.G.!./.^.E.Y.C.2X|.@X&XoX{.[.x.a.1.f.].'.c.[.(.>X1X>X#X@X/.!.E.L.K.y.K.(.(.K.z.z.f.e.e.4.z.K.u.F.G.Y.Z.Z.",
",XU.Z././. X:X:X#X/.I.!.E.R.L.J.E.L.K.K.J.E.J.f.#.p.z.u.D.t.XXXX].z.K.E.E.J.V.t.V.V.V.C.m.@X/.@X%Xc.k.c.k.1.#.1.(.z.f.x.(. X:X:X1X,X:X|.OX'.f.f.(.u.z.(.f.a.k.e.e.a.h.K.K.L.G.Z.M.Z.",
":XY.Y.^././.:X}.].].'.!.W.E.J.K.E.L.K.u.J.E.!.z.1.e.J.J.L.y.{.x.z.].J.L.L.J.G.J.V.C.C.C.P ~.^.OXc.c.c.k.1.[ [ @.h.e.1.l.u./.:X:X<X<X2XOX.Xx.k.f.z.f.h.(.f.a.f.e.1.1.e.K.K.G.V.C.G C.",
" XY.Y.^././.:X].x.(.z.(.K.J.z.K.L.L.y.e.J.E.W.K.z.z.E.!.'.z.[.a.k.z.J.L.L.L.J./.E.Z.Z.C.I E.E.].l.c.l.a.[ ) / [ 1.1.1.a.u.:X1X1X>X>X%XoXoXv.[.z.x.a.f.z.f.p.f.f.e.1.f.K.u.D.V.I G C.",
"!.C.E.-X/.!.@X}.z.(.f.z.z.u.p.e.D.L.y.q.f.K.t.4.f.e.E.J.f.e.c.d.x.z.K.J.J.J.W.:X/.^.E.Z.I E.W.[.l.c.d.a.[ / W [ #.1.1.a.y.-X<X2XOX%Xx.x.oXv.[.x.l.a.z.'.f.a.z.f.f.e.z.J.K.D.C.D K C.",
"L.m.E.-X/./.@X}.(.(.f.z.z.z.1.1.t.J.y.e.f.z.1.1.1.@.y.e.#.1.v.c.[.(.I.W.L.L.L.@X/./.E.Z.7./.E.(.c..Xk.i.[ / Y [ @.#.#.1.0.E./.OX.X.Xg.p.l.p.f.f.g.a.x.[.l.k.(.f.f.f.(.J.y.y.C.v H C.",
"V.P Z./././.}.].[.].z.z.z.z.1.e.y.F.e.q.f.x.p.#.) [ %.@.) <.g.x.[.].|.J.L.J.D.E.E.E.E.C.I }.!.z.z.[.l.a.[ W i W ) [ [ [ 2.!./.}.'.[.a.[ 1.#.1.a.a.a.x.'.l.z.(.(.z.f.z.J.y.y.C.D K C.",
"S.P Z./././.].(.x.f.f.l.k.f.p.f.e.y.e.1.f.[.x.#.) [ #.@.[ @.p.g..X[.}.!.J.].J.E.E.E.~.Y.I W.J.h.a.f.a.a.[ W i i W ) / / 2.].}.].(.(.1.[ [ [ 1.1.p.x.[.].k.z.z.K.K.f.z.L.z.K.Z.v A C.",
"7.L C./.}.I.].'.g.i.i.d.d.a.#.%.e.y.0.@.h..X{.p.) 1.a.i.#.@.1.f.#X}.}./././.!./.^.*X=XE.&.L.E.u.1.i.1.1./ W u u g ) ) W ( ].].'.x.z.$.) +.) 1.1.p.x.OX}.z.).(.(.K.z.(.L.u.y.Z.v b C.",
"-.P C.!.}.}.}.].a.d.d.l.x.f.#.1.z.F.y.q.f.x.l.d.1.a.g.g.d.1.p.h.OX@X:X=X/././.-X*X^./.Z.&.I.E.L.(.c.k.[ W i q u i ) W W @.[.[.z.g.x.#.) ) ) 1.1.p.g.OX}.(.].].z.'.K.(.L.K.y.L.I H 7.",
"7.Z.Y.W.I.!.!.].a.d.l.l.[.1.q.h.z.K.q.1.1.p.p.l.f.e.h.q.e.q.f.K.G.D.H.Z.V.V.V.E.Z.C.K m c ].!.!.}.c.c.4.W u i i i ) W i ..[.c.f.a.x.1.[ #.#.h.f.x.x.[.}.'.@X}.z.I.J.(.D.K.e.t.7.I C.",
"-.Z.Y.E.J.K.].h.#.i.d.f.h.e.e.y.f.f.q.1.#.#.1.l.z.9.L.J.E.J.J.I.L.D.L.L.Z.Z.Z.L.V.C.E.C.v }.}./.}.c.c.z.) / W i W [ ) / [ [.{.x.x.[.a.[ i.p.x.z.x.v.[.[.(.}.}.}.|.'.K.L.L.e.0.Z.C.C.",
"-.Z.Y.E.J.K.z.1.[ { i.a.u.y.e.e.e.e.e.1.[ #.1.f.(.D.G.L.E.!.}.].J.D.D.Z.Z.V.V.V.Z.Z.E.V.v OX/./.OXx.l.l.i.[ / g Q [ [ [ 1.[.XXc.c.v.d.{ i.p.z.z.[.v.[.oX[.}.#X:X:X@X!.L.J.h.y.Z.C.C.",
"I Z.Y.L.L.L.u.p.{ i.a.g.K.K.f.y.4.4.1.[ [ #.1.p.K.L.}.!.G.E.].z.(.y.D.V.V.V.8.V.V.Z.R.C.x L.!./.OX[.c.l.:./ Q W Q [ / ` 1..XoXx.x.l.i.{ #.a.z.u.x.l.x.[.x.OX#X@X:X#X@X!.J.e.0.B.C.7.",
";.Z.Y.E.L.L.K.a.i.a.a.l.K.K.f.y.e.e.1.[ @.#.[ 1.D.Z.}.}.W.!.(.a.z.f.y.D.G.V.V.V.Z.Z.Z.7.< V.Y.E.].[.[.a.[ Q Q Y Q ` / ` @.z.[.d.p.a.d.:.a.f.z.0.f.g.l.f.f.[.].J.L.!.!.E.J.y.0.7.C.-.",
";.Z.Y.!.J.L.K.p.i.p.a.k.K.F.p.y.e.e.1.[ 2.2.[ 2.D.G.E.W.L.W.z.p.z.f.K.L.L.G.Z.Z.Z.Z.Z.7.; V.Z.E.J.'.x.a.[ / Y Y Y / / ` @.e.z.k.a.a.i.:.i.f.e.1.e.a.g.a.a.z.(.(.D.J.W.E.L.(.K.Z.C.7.",
"K C.Z.!.K.K.(.i.{ #.p.f.y.y.f.y.q.y.1.@.0.1.#.1.L.Q.W.L.D.L.e.p.h.p.f.J.K.D.Z.Z.V.V.L.7.; B.E.E.E.].(.a.' Y Y T T / T ` <.e.z.z.k.a.:.{ :.a.e.e.4.a.a.i.a.f.z.z.F.].!.E.!.z.K.Z.C.7.",
"K C.S.Q.J.z.z.1.[ #.p.f.e.1.q.y.e.w.2.0.t.e.1.0.L.Z.I.J.D.D.1.[ { { 1.f.e.t.V.V.V.V.L.C.- I E.E.E.J.K.e.[ Y Y R T T Y / <.u.(.k.4.i.{ ` 1.a.a.e.e.a.p.i.p.p.f.e.y.J.!.W.I.z.K.Z.M.7.",
"K C.Z.E.I.(.f.#.{ #.1.1.q.%.1.y.q.0.q.e.K.u.y.t.Z.V.!.J.y.y.1.Q Q W Q 1.p.y.t.D.V.V.Z.C.* I Z.H.L.J.J.e.` T T R R T g W <.u.K.e.1.:.` ` 1.a.a.e.e.e.1.1.1.1.1.1.r.K.L.E.J.z.K.Z.m.I ",
"K C.Z.J.J.(.a.1.#.{ #.1.q.1.#.q.e.y.f.q.y.(.'.8.L.Z.!.].z.f.#.[ [ E [ p.a.h.z.y.t.V.Z.-.* 7.Z.Z.Z.D.D.w.[ / ` ` / R Y Y ) z.(.4.1.[ ' ' 1.f.e.y.e.1.1.@.2.1.1.@.t.J.L.L.z.z.K.Z.m.I ",
"K M.Z.K.e.z.d.#.i.i.p.#.1.1.#.1.(.(.[.z.(.f.e.K.V.V.OXK.z.z.1.1.1.) #.f.l.x.x.(.K.G.V.H - K H.Q.W.K.L.e.1.[ ' ' / T Y W _ z.'.z.a.1.' { 1.e.w.y.e.1.#.<.1.1.1.@.y.J.L.L.z.f.t.V.m.I ",
"I m.C.J.z.k.p.i.i.d.d.i.f.f.1.f.(.].).'.].f.q.K.7.=.(.z.'.[.p.@.1.[ #.x.[.{.c.'.}.J.D.N & A L./.}.].].z.1.[ ' ' T Y g W <.z.[.c.k.i.{ 1.a.e.y.t.y.1.1.1.1.1.1.[ e.y.L.L.K.h.t.V.m.I ",
"-.I C.L.K.k.a.i.i.i.#.i.f.1.@.f.z.(.(.(.K.z.y.D.=.K y.u.z.x.p.[ [ Q [ g.{.[.x.'.}.}.8.c + s 8.!.@XOXOX[.a.[ { ` Y i i g ) k.[.l.a.d.{ { a.a.y.D.K.f.i.1.1.#.1.[ q.e.L.E.K.h.8.V.m.I ",
";.I C.D.K.h.p.{ #.#.[ #.1.$.[ %.1.e.q.h.K.h.K.J.=.K D.J.y.k.i.{ [ ` ` a.v.z.q.y.J.J.=.x O s 8.!. X@X@X[.d.:.i./ Y i y y W 4.z.a.1.{ ' [ i.a.e.D.K.f.p.a.p.1.#.[ 1.f.J.E.(.f.t.V.I K ",
"K I C.Z.J.y.1.` Q Q ` { #.2.[ @.@.%.#.e.K.f.K.J.7.N Z.J.z.k.1.[ { { ` p.x.z.w.0.8.V.V.7.+ b V.L./.L.!.[.l.i.d.' T T i i l 4.z.e.{ ` / / 1.p.e.D.y.f.a.f.a.p.1.@.e.e.J.E.h.f.F.V.I G ",
"Z I C.Z.L.y.1.Q Q ^ Q [ { 2.@.+.) @.@.e.y.q.(.!.L.G V.K.z.k.1./ ` ` / 1.e.2.O. .&.&.7.7.+ c 8.5.t.D.J.(.d.a.n.:.[ ' Y i W 1.k.e.[ Q Q Q { 1.e.K.K.h.f.f.1.1.#.1.h.f.J.W.h.f.D.7.I G ",
"Z P C.G.J.y.#.Q T ^ Q [ [ @.) @.~ @.@.q.y.q.(.!.J.I L.K.u.f.{ Y Y Q / 1.t.o.B  .A A K b X e o.5.K.}.J.z.d.1.i.[ ' [ / Y ) i.a.1./ U i E [ #.1.K.u.f.a.f.1.#.{ p.(.z.J.I.f.1.D.7.I G ",
"Z P 7.V.L.D.#.` Q [ ` [ [ +.| @.) @.@.2.0.e.(.J.J.7.L.t.y.1.[ T y 9 / 2.5.X.B B A A A r . ; B 9.L.!.!.'.1.{ { ` ` [ / W ) a.d.1.W i q q W [ #.z.(.f.a.a.1.[ [ @.f.f.J.J.j.1.D.C.P G ",
"Z P C.L.L.D.1.` Q [ [ [ [ ..| ..[ $.2.2.0.e.y.J.L.=.D.t.0.2.@.Q y $ / 2.&.&.&.&.A A H e o * A 8.L.!.!.'.1.[ { ` ` ` W g ) 1.a.[ W q 8 8 g Q [ g.x.f.a.a.#.[ ~ ~ 1.j.J.J.e.1.K.V.P F ",
"Z P C.E.L.J.1.Q Y [ [ [ @.2.O.| ) @.2.0.r.w.t.D.D.7.J.J.t.0.$.Q y y / O.&.7.C.&.=.V.Z.c   ; A 5.V.8.J.[.1./ / / Q i i 4 h [ i.[ g 8 2 3 q g Q p.x.p.#.a.#.[ ) Q @.1.J.J.y.p.K.Z.L F ",
"Z P C.!.!.L.e./ Q [ [ [ [ 0.2.$.@.@.0.8.8.w.w.9.V.V.I.I.K.y.2.T y U ) 2.8.9.7.C.Z.E.G.; . e o.9.J.k o.k.{ Q Y Q Y 9 4 4 h [ a.[ g 7 2 2 q E [ 1.f.1.{ 1.@.[ ) ~ @.1.J.E.h.p.(.Z.L D ",
"P I Z.!.}.!.u.{ Q #.@.@.@.2.0.0.@.$.0.r.8.t.t.V.Z.V.].].J.e.1.Q T T [ 0.L.8.&.C.=.A K 7 O s >.0.D.t.8.4.` U U / W y 9 3 W [ p.[ g 6 2 2 q Q [ f.f.1.{ p.@.) ) [ @.1.J.W.h.a.].Z.P D ",
"Z I C.!.].(.y.[ Q #.1.@.{ #.0.0.@.@.w.t.V.t.e.V.Z.B.(.'.h.#.#.[ / Q [ e.D.8.o.K K H H s ; A w.e.e.D.D.4.` U / 1./ i q 4 W [ 1.) u 8 2 8 i W [ f.f.#.{ p.#.[ [ #.#.f.J.J.e.a.(.V.P F ",
"Z I C.!.K.K.e.` W [ [ ) ` @.$.2.@.@.e.t.V.t.y.V.Z.7.f.l.#.[ [ ` ` ` { a.u.(.t.8.7.K =.b ; A e.f.z.(.(.1./ / [ [ W i i i W ) [ ~ q 2 3 9 i Q [ f.f.i.#.f.p.{ #.1.p.f.K.K.f.a.(.V.P F ",
"N P 7.K.y.F.1.Q i Q Q Q Q ) @.$...@.q.0.t.e.y.9.C.&.p.a.[ Q Q ` Q Q ` 1.4.e.y.D.Z.C.K x , 5.2.1.e.f.z.1.Q Q [ Q Y U i i q q Q W 4 2 3 9 i Y Q @.) Q [ 1.[ / #...W | 0. .) 1.y.V.P F ",
"N L A e.f.y.+.i q W i E i W | ) | $.$.q.y.q.u.D.C.&.1.#.W i E W w 9 i ` { 1.e.D.L.B.A e c K.e.1.@.@.<.[ U Y [ / i 9 9 9 i i Y u % 3 9 y Y / Q ) ..) Q [ @./ _  .....2.O.@.1.t.7.G G ",
"N I =.z.p.p.) q 3 W w g w g ! ! | $.$.0.0.1.(.J.V.&.2.) E q i U 9 3 q Q @.#.q.F.L.D.5.e s [.XXg.1.@.@.) y 9 Y Y y 4 3 4 i i W u $ 4 9 y Y ` [ >.0.@.[ 2.2.1.1.w.e.z.I.(.f.a.y.C.G D ",
"P m.7.z.1.1.[ w q E i g w g g W | $.$.$.0.1.(.}.J.&.@.Q i q i E 9 3 w Q ) @.1.K.W.W.L.b , O.v.l.g.1.1.) 3 % 9 y 9 $ $ 4 i W Q i 3 3 9 y U / [ 2.0.@.#.2.1.1.1.1.1.y.J.'.z.p.h.8.G F ",
"G M.8.z.1.#.Q i w W w g w g g ! ) | @.| 0.q.(.[.K.o.$.Q i q w U q 3 i Q Q ) 2.y.J.!.W.K ;  .l.d.l.d.p.) 2 # 3 9 9 $ 4 9 9 / / i 3 3 9 y i Q [ 2.q.1.1.1.1.1.1.1.1.e.J.J.z.a.x.D.v v ",
"G C.7.h.#.#.Q q w g w i w g E ! ! ..$...r.q.z.].y.B @.U w 9 w U w 9 q i g ~ $.2.F.W.E.A ; ..f.i.a.d.g.#.q 2 9 i i 9 9 9 i Y Y u 3 3 9 0 w Q [ 1.e.4.p.f.e.4.4.e.1.e.J.(.f.1.x.5.c v ",
"N I 8.z.[ [ [ q 3 w g g q g W g ( O.| O.t.e.y.K.w.A @.W w 9 i Q U q w W W ~ $.$.K.!./.I e ..1.#.p.p.d.i.E q i Y q 4 9 9 i Q Y q 2 3 9 w i W ` 1.e.4.i.a.4.1.1.e.e.y.F.h.q.#.f. .b v ",
"m K 8.z.#.#.) w q E W W E W ! | $.0.$.0.t.r.q.0.o.X.1.W q q W [ W g W [ ) ) $.q.y.D.W.K * ( #.[ i.p.i.#.Q W Q i 2 @ 3 3 i Q h 8 2 1 3 q w i Q #.1.#.#.1.4.1.1.1.q.e.e.q.+.) f. .s c ",
"c n z f.#.#.[ E U Q ! ) E ! ) $.0.0.2.q.t.t.y.t.A B 1.Q i w Q [ Q E Q @.[ +.q.1.y.F.J.K ; ) @.[ [ #.#.#.W g i i 8 2 3 % 9 W g 8 2 = 2 q q w Q @.1.@.#.1.e.1.1.t.0.1.e.1.! W 1.l r s ",
"c A o.e.[ #.[ Q Q ) | @.Q | @.$.2.q.q.e.y.K.z.z.X.B @.[ g W [ [ [ Q Q [ [ @.1.2.2.>.D.K e @.1.[ [ [ [ [ E q q i q q q 9 q E W 8 2 = 2 8 q q Q #.1.@.{ 1.e.4.y.D.0.$.1.1.) ~ 2.l r s ",
"m A O.e.[ 1.#.^ Q [ @.$.~ @.@.@.1.1.e.z.K.(.z.f.*.o.) W g [ { #.#.[ [ { #.@.1.0.0. .5.A e @.#./ [ ~ W [ E q q q w q U i q E W 8 1 = 1 3 6 q E [ #.#.#.a.a.a.e.D.0.1.q.1.[ ) 1. ., c ",
"G H b e.1.1.#.[ Q [ @.$.) ..) +.@.1.y.y.y.e.e.e.5.N h i i Q [ 1.i.#.{ 1.#.2.1.y.r.! o.k + q @.) ) W g W g q q q q w i q = q W q = = = 1 2 6 q Q #.@.1.a.a.1.e.t.0.1.w.2.@.@.0.A c c ",
"I C.b 2.1.1.1.[ Q @.1.2.@.@.@.[ [ 2.0.e.y.y.w.t.t.A  .U i Y ` #.1.1.{ 1.1.2.2.t.t.O...n . 7 ) ) [ ~ q 8 2 2 1 6 8 q g h q ) ) g 2 = = = = * 7 g | @.@.@.l q l k l l B ..$.O.*.A x c ",
"C.B.K 0.2.@.) g g | | | ( ! ( g W  .O...o. .O.O.9.A O.W U W Q [ 1.1.#.a.z.w.O.5.t.&.B k . B @.2.0.@.W q 3 3 # @ h ! ( e.q.u.f.! 8 q 8 6 = @ 1 g ) $.e.) @ = 8 2 @ @ f (  .A A b x c ",
"Z.B.I L.K.t.2.! ..$.) ) ) h f g n 5.e...o.o.>.8.V.K O.Q W W W ) 2.e.1.f.z.y.O.5.8.X.B j .  .$.w.D.2.<.) W i q u ( ..| y.K.K.e.) g E q U i 9 1 2 g Q 2.[ W ..>.( u u h ....O.5.b x c ",
"L.8.I !.J.e.@.@.2.2.) @...l g l  .2.0.$.5.8.5.5.5.N o.@.$.| ( ( O.0.1.u.K.u.t.t.&.&.n j + l ( 0.J.t.t.2...( @.$.5.5.O.5.D.J.K.@.) ) U Q [ i 3 2 q Q 1.f.e.@.2..... .( ..>.8.9.K c c ",
"L.C.K L.J.2.) @.$...) .... .l z O.0.t.0.t.8.5.7.&.A 5.0.0.>.o.o.o.o.0.J.J.K.D.5.X.X.B p + j O.K.J.J.D.>. ...t.D.8.5.O.o.&.t.K.$.) _ Q [ 1.! w q g ) e.z.u.y.t.O...O. .O.5.7.7.K c c ",
"E.7.b V.D.O.| ..O.0.O.5.5.O.&. .o.5.L.t.t.8.8.7.=.A 7.5.5.5.5.&.A A &.9.D.D.8.&.A H A s + n O.t.D.D.V.o. .t.J.9.8.5.o.B B 5.9.0.@.<.<.e.K...W g ( ..J.K.5.D.D.O.| o.o.5.7.=.7.K v c ",
"L.7.m Z.G.t.0.w.J.L.t.9.9.8.7.A B o.8.9.9.7.7.&.K N 7.V.8.&.5.&.A B X.&.8.V.7.K N m m x O r f  .5.D.L.8.O.t.J.D.7.&.A b n K &.5.>.2.2.w.t.0...l  .8.V.D.o.D.D.5.5.5.&.7.7.=.7.A x x ",
"D.7.G V.Z.G.L.J.E.L.J.V.V.9.5.b j k S o.5.&.K A K m N 7.5.&.&.o.X.n n B X.&.K H m s s t . > f  .8.J.D.5.5.t.J.J.9.&.B b A &.A o.o.B >.9.9.5.o.; n J.9.8.5.8.V.D.Z.V.7.C.I 7.I , t d ",
"G.I G Z.Z.H.E.Q.^.E.L.L.L.V.&.N p k B S A A K A K N b B N N b b b k r r r 7 p e = * + + o + k 5.V.9.o.A 5.5.5.,.A B o.B K 5.A o.B 7 k A &.j p ; s K.t.D.5.O.o.A B.V.7.I I =.A + ; t "
};
